<svg xmlns="http://www.w3.org/2000/svg" xmlns:xlink="http://www.w3.org/1999/xlink" width="48" height="48" viewBox="0 0 48 48"><defs><path id="a" d="M39.263.029 37.697 0l-2.845 1.896L32 .945l-3 1-3-1-2.852.951L20.303 0H1v2H0v44.002h1V48h19.303l2.845-1.896 2.852.951 3-1 3 1 2.853-.951L37.697 48h1.479L48 45.779V2.22L39.263.029zM12 44.002H2V40h4v1h6v3.002zM12 37H6v1H2v-4h4v1h6v2zm0-6H6v1H2v-4h4v1h6v2zm0-6H6v1H2v-4h10v3zm0-5H2v-4h4v1h6v3zm0-7H6v1H2v-4h4v1h6v2zm0-6H6v1H2V4h10v3zm7 39h-5V2h5v44zm3-1.535-1 .666V2.869l1 .666v40.93zm3 .147-1-.333V3.721l1-.333v41.224zm3-.333-1 .333V3.388l1 .333v40.558zm3 .333-1-.333V3.721l1-.333v41.224zm3-.333-1 .333V3.388l1 .333v40.558zm3 .852-1-.666V3.535l1-.666v42.262zm9-.91-7 1.762V2.025l7 1.755v40.441zM45 28a1 1 0 1 1-2 0 1 1 0 1 1 2 0zm-4-2a1 1 0 1 1 2 0 1 1 0 1 1-2 0zm4-2a1 1 0 1 1-2 0 1 1 0 1 1 2 0zm0-4a1 1 0 1 1-2 0 1 1 0 1 1 2 0zm-4-2a1 1 0 1 1 2 0 1 1 0 1 1-2 0zm0 4a1 1 0 1 1 2 0 1 1 0 1 1-2 0zm4-6a1 1 0 1 1-2 0 1 1 0 1 1 2 0zm-4-2a1 1 0 1 1 2 0 1 1 0 1 1-2 0zm2-2a1 1 0 1 1 2 0 1 1 0 1 1-2 0zm-2-2a1 1 0 1 1 2 0 1 1 0 1 1-2 0zm0 28a1 1 0 1 1 2 0 1 1 0 1 1-2 0zm4-2a1 1 0 1 1-2 0 1 1 0 1 1 2 0zm0-4a1 1 0 1 1-2 0 1 1 0 1 1 2 0zm-4-2a1 1 0 1 1 2 0 1 1 0 1 1-2 0zm0 4a1 1 0 1 1 2 0 1 1 0 1 1-2 0z"/></defs><use xlink:href="#a"/></svg>