<svg xmlns="http://www.w3.org/2000/svg" xmlns:xlink="http://www.w3.org/1999/xlink" width="48" height="48" viewBox="0 0 48 48"><defs><path id="a" d="M18 26c-2.206 0-4 1.795-4 4s1.794 4 4 4 4-1.795 4-4-1.794-4-4-4zm0 6c-1.103 0-2-.896-2-2s.897-2 2-2 2 .896 2 2-.897 2-2 2zm-9.293 1.293 6 6-1.414 1.414-6-6 1.414-1.414zM47.336 6.074c.405-.406.664-.943.664-1.965C48 1.459 46.579 0 44 0c-1.077 0-1.619.271-2.058.719A1.056 1.056 0 0 0 41.71.29c-.38-.37-1.05-.37-1.42 0-.181.19-.29.45-.29.71 0 .27.109.52.29.71.164.155.385.245.608.27-.23.243-.53.517-.938.823a1.044 1.044 0 0 0-.25-.513c-.38-.37-1.061-.36-1.42 0-.181.19-.29.44-.29.71 0 .26.109.52.29.71.094.089.205.16.325.21-.22.23-.45.487-.677.779a1.06 1.06 0 0 0-.229-.409c-.37-.37-1.05-.37-1.42 0-.18.19-.289.45-.289.71 0 .27.109.52.29.71.189.18.45.29.71.29.046 0 .09-.021.135-.027-.189.391-.328.787-.366 1.168-.023.242-.002.449.038.639l-12.1 12.1C22.983 18.715 21 18 19 18c-5.213 0-6.008 3.457-6.436 5.314-.084.367-.2.871-.271.979-.377.377-1.734.626-2.932.846C5.634 25.82 0 26.852 0 33.98 0 40.531 7.469 48 14.02 48c7.128 0 8.16-5.633 8.842-9.361.219-1.197.468-2.555.823-2.912.13-.091.633-.207 1-.291C26.543 35.008 30 34.213 30 29c0-2-.715-3.982-1.88-5.707l12.096-12.094a2.08 2.08 0 0 0 .645.031c.38-.037.776-.176 1.166-.365-.006.045-.027.089-.027.135 0 .26.109.52.29.71.189.18.45.29.71.29s.52-.11.71-.29c.18-.19.29-.45.29-.71s-.11-.52-.29-.71a.922.922 0 0 0-.414-.224 9.92 9.92 0 0 0 .782-.68c.051.12.122.229.212.324.189.18.45.29.71.29s.52-.11.71-.29c.18-.19.29-.45.29-.71s-.11-.52-.29-.71a.978.978 0 0 0-.517-.242c.311-.411.586-.707.83-.931.027.223.113.432.267.593.189.18.45.29.71.29s.52-.11.71-.29c.18-.19.29-.45.29-.71s-.11-.52-.29-.71a.951.951 0 0 0-.374-.216zM24.237 33.486c-.792.182-1.477.34-1.944.807-.818.818-1.074 2.217-1.398 3.986C20.232 41.898 19.481 46 14.02 46 8.516 46 2 39.484 2 33.98c0-5.462 4.102-6.213 7.722-6.875 1.77-.324 3.167-.58 3.985-1.398.467-.467.625-1.151.807-1.943C14.939 21.913 15.379 20 19 20c4.458 0 9 4.542 9 9 0 3.621-1.913 4.061-3.763 4.486zm2.625-11.762a12.954 12.954 0 0 0-.586-.586L38 9.414l.586.586-11.724 11.724zM40.707 9.293c-.001-.001 0-.001 0 0zm4.894-4.381c-.549.38-1.379.953-2.432 2.533-.345.518-1.932 1.822-2.518 1.792l-1.889-1.889c-.023-.565 1.274-2.171 1.792-2.517 1.541-1.027 2.145-1.841 2.544-2.379C43.435 2 43.435 2 44 2c1.458 0 2 .572 2 2.109 0 .528 0 .528-.399.803z"/></defs><use xlink:href="#a"/></svg>