<svg xmlns="http://www.w3.org/2000/svg" xmlns:xlink="http://www.w3.org/1999/xlink" width="48" height="48" viewBox="0 0 48 48"><defs><path id="a" d="M8 37h32c4.411 0 8-3.589 8-8s-3.589-8-8-8H8a2 2 0 0 1 0-4h32c4.411 0 8-3.589 8-8s-3.589-8-8-8h-3.696c-.821-.486-2.247-.816-3.116-.982L18 0v1H6.586l-.293.293c-.572.572-2.014.572-2.586 0L3.136.722l-.679.438C.826 2.215 0 3.17 0 4s.826 1.785 2.457 2.84l.679.438.571-.571c.572-.572 2.014-.572 2.586 0L6.586 7H18v1h15.095l.093-.018c.869-.166 2.293-.496 3.116-.982H40c1.103 0 2 .896 2 2s-.897 2-2 2H8c-4.411 0-8 3.589-8 8s3.589 8 8 8h32c1.103 0 2 .896 2 2s-.897 2-2 2H8c-4.411 0-8 3.589-8 8s3.589 8 8 8h3.695c.822.486 2.248.816 3.117.982L30 48v-1h11.414l.293-.293c.572-.572 2.014-.572 2.586 0l.571.571.679-.438C47.173 45.785 48 44.83 48 44s-.827-1.785-2.457-2.84l-.679-.438-.571.571c-.572.572-2.014.572-2.586 0L41.414 41H30v-1H15l-.188.018c-.869.166-2.295.496-3.117.982H8a2 2 0 0 1 0-4zM2.982 4.768c-.367-.278-.697-.564-.879-.768.183-.203.513-.49.881-.768 1.285.739 3.218.645 4.385-.232H8v2h-.631c-1.167-.877-3.1-.973-4.387-.232zM10 5V3h8v2h-8zm10 0V2h11v4H20V5zm15.316.271c-.235.18-1.289.5-2.316.708V2.02c1.027.21 2.079.527 2.287.682.329.4.329 2.196.029 2.569zm9.701 37.961c.369.277.698.563.881.768-.183.203-.513.49-.881.768-1.285-.738-3.22-.645-4.386.232H40v-2h.631c1.165.877 3.1.971 4.386.232zM38 43v2h-8v-2h8zm-10 0v3H17v-4h11v1zm-15.316-.271c.236-.18 1.289-.499 2.316-.708v3.96c-1.026-.209-2.077-.527-2.287-.682-.328-.401-.328-2.197-.029-2.57zM8 43h2.568a6.213 6.213 0 0 0 0 2H8c-3.309 0-6-2.691-6-6s2.691-6 6-6h32c2.206 0 4-1.795 4-4s-1.794-4-4-4H8c-3.309 0-6-2.691-6-6s2.691-6 6-6h32c2.206 0 4-1.795 4-4s-1.794-4-4-4h-2.568a6.213 6.213 0 0 0 0-2H40c3.309 0 6 2.691 6 6s-2.691 6-6 6H8c-2.205 0-4 1.795-4 4s1.795 4 4 4h32c3.309 0 6 2.691 6 6s-2.691 6-6 6H8c-2.205 0-4 1.795-4 4s1.795 4 4 4z"/></defs><use xlink:href="#a"/></svg>