<svg xmlns="http://www.w3.org/2000/svg" xmlns:xlink="http://www.w3.org/1999/xlink" width="48" height="48" viewBox="0 0 48 48"><defs><path id="a" d="M47.686 5.29a5.846 5.846 0 0 0-.576-.329l.865-1.736V2.99c0-1.537-1.453-2.99-2.99-2.99h-.235l-1.748.872a5.141 5.141 0 0 0-.316-.552c-.32-.461-1.031-.391-1.42 0-.391.39-.451 1.09 0 1.41l.008.004-1.115.557-.131.393c-.004.009-.096.283-.277.711-.021-.034-.045-.076-.064-.104-.32-.45-1.031-.39-1.42 0-.391.39-.451 1.101 0 1.42.146.103.381.231.652.368-.393.684-.889 1.412-1.482 2.046l-19.41 18.528A11.92 11.92 0 0 0 11.975 24c-6.62 0-12 5.38-12 12 0 2.457.744 4.742 2.015 6.646l-.335.447 3.227 3.227.447-.336A11.922 11.922 0 0 0 11.975 48c6.62 0 12-5.38 12-12 0-2.211-.611-4.277-1.657-6.058l18.364-19.245c.668-.664 1.469-1.212 2.217-1.639.135.27.264.506.367.651.32.45 1.029.39 1.42 0 .389-.39.449-1.101 0-1.42-.029-.02-.07-.043-.105-.064.428-.181.703-.274.713-.278l.393-.131.564-1.133c.004.008.01.02.016.026.32.45 1.029.39 1.42 0 .387-.389.448-1.1-.001-1.419zM5.069 43.68l-.773-.773 1.788-2.384 1.369 1.369-2.384 1.788zM11.975 46a9.916 9.916 0 0 1-4.924-1.307l3.446-2.585-4.631-4.631-2.584 3.446A9.92 9.92 0 0 1 1.975 36c0-5.51 4.49-10 10-10s10 4.49 10 10-4.49 10-10 10zm9.167-17.729a12.057 12.057 0 0 0-1.443-1.442L37.955 9.391l.619.609-17.432 18.271zM44.258 6.197c-.803.31-2.65 1.106-4.242 2.412l-.65-.649c1.305-1.594 2.102-3.44 2.412-4.243l3.387-1.688c.334.1.684.449.783.782l-1.69 3.386zM10.682 32.293l5 5-1.414 1.414-5-5 1.414-1.414z"/></defs><use xlink:href="#a"/></svg>