<svg xmlns="http://www.w3.org/2000/svg" xmlns:xlink="http://www.w3.org/1999/xlink" width="48" height="48" viewBox="0 0 48 48"><defs><path id="a" d="M10.956 44a1 1 0 1 1-1.998.002A1 1 0 0 1 10.956 44zm-1.707-9.293 4 4 1.414-1.414-4-4-1.414 1.414zm-.586.586-1.414 1.414 4 4 1.414-1.414-4-4zm-2 3-2.414 2.414 3 3 2.414-2.414-3-3zM12.956 41a1 1 0 1 0 0 2 1 1 0 0 0 0-2zm34.71-35.71a1.003 1.003 0 0 1-.71 1.71c-.28 0-.53-.12-.71-.3l-.8-.944c-.281.573-.489 1.294-.489 2.244v.632l-.571.271-.113.054.394.333a1.003 1.003 0 0 1-.71 1.71c-.28 0-.53-.12-.71-.3l-.744-.882a65.93 65.93 0 0 0-1.931.987l-22.22 23.144c.529.288 1.533.539 3.363.081l.614-.154.473.518c.425.518.351 1.414.059 2.033-.509 1.08-1.947 1.865-4.662 2.543-.488.123-.861 1.38-1.191 2.489C16.234 44.063 15.064 48 9.956 48c-1.6 0-3.414 0-6.707-3.293S-.044 38.092-.044 37c0-4.282 3.373-5.116 5.835-5.725 1.795-.443 2.909-.774 3.228-1.626 2.25-5.998 4.619-8.58 7.92-8.633.887-.025 1.245.39 1.403.731.359.776-.243 1.462-.533 1.792l-.073.085c-2.415 3.019-2.71 4.056-2.482 4.782L37.25 7.292c.108-.107.225-.27.341-.45L36.256 5.71c-.18-.18-.3-.43-.3-.71a1.003 1.003 0 0 1 1.71-.71l.764.903c.234-.548.44-1.093.579-1.51l.134-.402.502-.24-.389-.331c-.18-.18-.3-.43-.3-.71a1.003 1.003 0 0 1 1.71-.71l.76.898L46 0h.227c.546 0 1.025.224 1.351.63.679.849.443 2.196.355 2.59l-.124.551-.535.178c-.03.012-.334.131-.707.412l1.099.929zM16.95 35.409l-.979 1.02-4.443-4.443 2.209-2.121c-.946-1.678-.901-3.08 1.661-6.488-1.195.615-2.753 2.305-4.505 6.975-.712 1.9-2.789 2.414-4.622 2.867-2.675.659-4.315 1.196-4.315 3.781 0 .887 0 3.586 2.707 6.293S8.626 46 9.956 46c3.364 0 4.217-2.023 5.134-5.11.528-1.779 1.028-3.461 2.623-3.859 1.081-.271 1.814-.529 2.311-.754-1.485.01-2.462-.422-3.074-.868zm21.607-25.394-.614-.615-23.558 22.615 1.557 1.557 22.615-23.557zm7.484-7.818-5.277 2.525c-.256.71-.813 2.144-1.481 3.188l.859.858c.977-.507 2.159-1.083 2.839-1.411.227-3.091 2.075-4.498 3.058-5.033l.002-.127z"/></defs><use xlink:href="#a"/></svg>