<svg xmlns="http://www.w3.org/2000/svg" xmlns:xlink="http://www.w3.org/1999/xlink" width="48" height="48" viewBox="0 0 48 48"><defs><path id="a" d="M11.25 21c-1.654 0-3 1.346-3 3s1.346 3 3 3 3-1.346 3-3-1.346-3-3-3zm0 4a1 1 0 1 1 0-2 1 1 0 0 1 0 2zm25.5-4c-1.654 0-3 1.346-3 3s1.346 3 3 3 3-1.346 3-3-1.346-3-3-3zm0 4a1 1 0 1 1 0-2 1 1 0 0 1 0 2zM16 21v6h16v-6H16zm11.087 2c-.055.29-.087.62-.087 1s.032.71.087 1h-5.174c.055-.29.087-.62.087-1s-.032-.71-.087-1h5.174zM18 23h1.824c.058.095.176.365.176 1s-.118.905-.176 1H18v-2zm12 2h-.824c-.058-.095-.176-.365-.176-1s.118-.905.176-1H30v2zM5 13a1 1 0 1 1-2 0 1 1 0 1 1 2 0zm40 0a1 1 0 1 1-2 0 1 1 0 1 1 2 0zM5 35a1 1 0 1 1-2 0 1 1 0 1 1 2 0zm40 0a1 1 0 1 1-2 0 1 1 0 1 1 2 0zm-27-1a1 1 0 0 1-1 1h-1a1 1 0 1 1 0-2h1a1 1 0 0 1 1 1zm15 0a1 1 0 0 1-1 1h-1a1 1 0 1 1 0-2h1a1 1 0 0 1 1 1zM45 9H3c-1.654 0-3 1.346-3 3v24c0 1.654 1.346 3 3 3h42c1.654 0 3-1.346 3-3V12c0-1.654-1.346-3-3-3zM11.517 37l2.143-5h20.682l2.143 5H11.517zM46 36a1 1 0 0 1-1 1h-6.341l-3-7H12.341l-3 7H3a1 1 0 0 1-1-1V12a1 1 0 0 1 1-1h42a1 1 0 0 1 1 1v24z"/></defs><use xlink:href="#a"/></svg>