<svg xmlns="http://www.w3.org/2000/svg" xmlns:xlink="http://www.w3.org/1999/xlink" width="48" height="48" viewBox="0 0 48 48"><defs><path id="a" d="M48 7c0-2.335-1.068-3.396-2.045-3.796C45.739.87 44.591 0 43.5 0h-12c-1.091 0-2.239.87-2.455 3.204C28.068 3.604 27 4.665 27 7c0-2.335-1.068-3.396-2.045-3.796C24.739.87 23.59 0 22.5 0h-18C3.41 0 2.261.87 2.045 3.205 1.068 3.604 0 4.665 0 7v1h1.915C1.668 11.035 1 19.494 1 22c0 9.088 5.824 23.752 6.071 24.371l.142.354.341.17C7.646 46.94 9.813 48 13 48c3.114 0 6.186-1.008 6.315-1.051l.441-.146.173-.432C20.176 45.752 26 31.088 26 22c0-2.506-.668-10.965-.915-14h2.809C27.631 10.623 27 17.111 27 18.977c0 6.982 4.88 17.968 5.087 18.432l.138.309.297.161c.083.045 2.085 1.121 4.585 1.121 2.43 0 5.136-1.022 5.249-1.066l.387-.146.17-.379C43.12 36.944 48 25.959 48 18.977c0-1.865-.631-8.354-.894-10.977H48V7zM2.111 6c.237-.9.778-.992.889-1h20.971c.133.008.679.1.917 1H2.111zM4.5 2h18.002c.06.02.299.271.423 1H4.075c.123-.729.363-.98.425-1zM24 22c0 7.85-4.776 20.645-5.755 23.184-.911.261-3.098.816-5.245.816-2.025 0-3.573-.502-4.221-.755C7.856 42.858 3 29.916 3 22c0-2.444.689-11.141.921-14H6v8.278c-.595.347-1 .985-1 1.722 0 1.104.897 2 2 2s2-.896 2-2c0-.737-.405-1.375-1-1.722V8h11v8.278A1.992 1.992 0 0 0 20 20c1.103 0 2-.896 2-2 0-.737-.405-1.375-1-1.722V8h2.079c.232 2.859.921 11.556.921 14zm5.111-16c.238-.9.778-.992.889-1h14.972c.133.008.679.1.917 1H29.111zM31.5 2h12.003c.06.02.299.271.422 1h-12.85c.123-.729.363-.98.425-1zM46 18.977c0 5.853-3.877 15.209-4.743 17.225-.774.259-2.572.798-4.15.798-1.485 0-2.783-.493-3.34-.74C32.955 34.373 29 24.893 29 18.977c0-1.802.658-8.529.903-10.977H31v6.212c-.595.347-1 .985-1 1.722 0 1.104.897 2 2 2s2-.896 2-2c0-.736-.405-1.375-1-1.722V8h8v6.212c-.595.347-1 .985-1 1.722 0 1.104.897 2 2 2s2-.896 2-2c0-.736-.405-1.375-1-1.722V8h2.097c.245 2.447.903 9.175.903 10.977z"/></defs><use xlink:href="#a"/></svg>