<svg xmlns="http://www.w3.org/2000/svg" xmlns:xlink="http://www.w3.org/1999/xlink" width="48" height="48" viewBox="0 0 48 48"><defs><path id="a" d="M30 27c0-1.654-1.346-3-3-3s-3 1.346-3 3c0 1.579 1.23 2.863 2.781 2.979-.092.439-.283.938-.629 1.492-1.5 2.398-1.784 4.814-.78 6.627.668 1.205 1.849 1.953 3.082 1.953C30.219 40.051 32 38.488 32 35c0-2.889-1.19-5.145-2.334-6.654.207-.407.334-.86.334-1.346zm-4 0c0-.031.014-.057.018-.087-.016.23.049.465.188.663A.969.969 0 0 1 26 27zm1-1c.044 0 .082.02.124.025-.059-.008-.118-.018-.178-.015.019 0 .035-.01.054-.01zm3 9c0 1.824-.621 3.051-1.546 3.051-.507 0-1.018-.354-1.332-.922-.304-.549-.841-2.092.726-4.6a6.553 6.553 0 0 0 .86-2.022C29.41 31.682 30 33.203 30 35zm6-8c0 2.24-.82 4.29-2.18 5.87-.16-.899-.4-1.72-.7-2.479.56-1.011.88-2.161.88-3.391 0-3.859-3.14-7-7-7s-7 3.141-7 7c0 2.49 1.3 4.67 3.26 5.91-.23.699-.38 1.39-.44 2.061C19.96 33.46 18 30.45 18 27c0-4.96 4.04-9 9-9s9 4.04 9 9zm1.057-16.09C33.693 5.568 27.765 2 21 2 10.523 2 2 10.523 2 21c0 6.766 3.568 12.692 8.909 16.057C14.272 42.418 20.219 46 27 46c10.477 0 19-8.523 19-19 0-6.781-3.583-12.728-8.943-16.09zM4 21c0-9.374 7.626-17 17-17 4.676 0 8.904 1.91 11.978 4.979A18.869 18.869 0 0 0 27 8C16.523 8 8 16.523 8 27c0 2.09.352 4.096.978 5.979C5.91 29.904 4 25.677 4 21zm23 23c-9.374 0-17-7.626-17-17s7.626-17 17-17 17 7.626 17 17-7.626 17-17 17z"/></defs><use xlink:href="#a"/></svg>