<svg xmlns="http://www.w3.org/2000/svg" xmlns:xlink="http://www.w3.org/1999/xlink" width="48" height="48" viewBox="0 0 48 48"><defs><path id="a" d="M44.944 0c-1.229 0-2.198.392-2.975.889-.133-.46-.392-.889-.916-.889-1.183 0-.462.796.236 1.387-.165.137-.32.271-.463.405-.144-.414-.399-.776-.883-.776-1.191 0-.451.801.252 1.389l-.374.375c-.144-.408-.399-.764-.878-.764-1.191 0-.451.801.252 1.389l-.332.331c-.146-.39-.402-.72-.863-.72-1.173 0-.474.776.22 1.362l-.356.354c-.148-.388-.403-.716-.864-.716-1.172 0-.476.774.217 1.359l-.355.354c-.148-.387-.403-.713-.862-.713-1.169 0-.479.771.213 1.356L36 6.583V7c0 1.268-.475 1.995-.645 2.215L18.884 25.7c-.408-.354-.884-.927-.884-1.7 0-.734.794-1.651 1.32-2.259.576-.666 1.074-1.241.812-1.966-.069-.192-.302-.651-.967-.762-4.633-.774-5.971 2.591-6.947 5.046-.517 1.302-1.004 2.53-1.818 3.141-1.253.94-2.762 1.581-4.22 2.2C3.142 30.692 0 32.027 0 36c0 5.448 6.756 12 11 12 4.86 0 6.155-3.23 7.196-5.826.762-1.901 1.42-3.543 3.176-4.245 4.539-1.815 5.349-4.381 5.112-5.61C26.332 31.529 25.735 31 25 31c-.732 0-1.187.321-1.519.556-.336.238-.627.444-1.481.444-.355 0-.817-.055-1.007-.313-.211-.289-.165-.829-.09-1.176l17.779-17.793.025-.011c.627-.627 1.173-.662 2.969-.687l.34-.005c1.192-.019 1.504-1.337 1.898-3.006.197-.837.662-2.801 1.086-2.993a3 3 0 0 0 3-2.992C48 1.356 46.654 0 44.944 0zM22 34c1.149 0 1.823-.291 2.28-.571-.4.692-1.39 1.738-3.652 2.643-2.55 1.021-3.474 3.325-4.289 5.358C15.316 43.983 14.507 46 11 46c-2.975 0-9-5.5-9-10 0-2.526 1.793-3.412 4.962-4.759 1.568-.666 3.189-1.355 4.638-2.441 1.264-.948 1.88-2.5 2.477-4.002.886-2.23 1.553-3.663 3.312-3.873C16.729 21.727 16 22.789 16 24c0 1.452.771 2.483 1.466 3.119l-.88.881 2.318 2.317c-.109.658-.144 1.69.465 2.535C19.746 33.376 20.509 34 22 34zm-2-5.414L19.414 28 36 11.398l.586.586L20 28.586zm24.992-24.57c-1.957.016-2.549 2.521-3.025 4.534-.109.464-.262 1.112-.393 1.472-1.441.021-2.508.046-3.484.639l-.787-.786c.303-.547.617-1.36.684-2.444.698-.693 2.535-2.519 3.758-3.746C42.492 2.934 43.424 2 44.999 2H45c.542 0 1 .469 1 1.023a1 1 0 0 1-1.008.993zM14.707 30.293l3 3-1.414 1.414-3-3 1.414-1.414zm-3 3 3 3-1.414 1.414-3-3 1.414-1.414zm0 7-1.414 1.414-4-4 1.414-1.414 4 4zM14 41a1 1 0 1 1-2 0 1 1 0 0 1 2 0zm3-3a1 1 0 1 1-2 0 1 1 0 0 1 2 0zm-4 6a1 1 0 1 1-2 0 1 1 0 0 1 2 0z"/></defs><use xlink:href="#a"/></svg>