<svg xmlns="http://www.w3.org/2000/svg" xmlns:xlink="http://www.w3.org/1999/xlink" width="48" height="48" viewBox="0 0 48 48"><defs><path id="a" d="M26.964 22.04a.999.999 0 1 1-1.998.002.999.999 0 0 1 1.998-.002zM22.986 24a1 1 0 1 0-.002 1.998A1 1 0 0 0 22.986 24zm-3.017 3.04a1 1 0 1 0 0 2c.553 0 .999-.447.999-1s-.447-1-.999-1zM16.987 30a1 1 0 1 0-.002 1.998A1 1 0 0 0 16.987 30zM48 2.59l-.01.43c-.03 1.43-2.23 5.6-5.469 6.85l-7.658 7.659.143.143-.052.477c-.164 1.51-2.38 3.726-3.887 3.886l-.475.051-.142-.142L13.376 39.03l.673.674-.095.517c-.202 1.105-.892 1.346-1.395 1.521-.502.176-1.343.469-2.878 2.005l-.707.708-.511-.512-1.484 1.487c-.11 1.27-.67 2.57-1.98 2.57h-.42L0 43.41V43c0-1.32 1.299-1.88 2.57-1.98l1.486-1.486-.493-.494.707-.707c1.517-1.517 1.811-2.392 1.988-2.913.174-.514.436-1.291 1.646-1.377l.456-.033.609.609 17.079-17.082-.083-.083v-.414c0-1.607 2.391-4 3.998-4h.414l.084.083 7.671-7.673C39.382 2.16 43.551 0 44.971 0h.409L48 2.59zM7.049 42.528l-1.58-1.581L3.409 43H3c-.17 0-.359.02-.54.05l2.479 2.479A3.31 3.31 0 0 0 5 44.99v-.41l.29-.29 1.759-1.762zm4.466-2.532L8.002 36.48c-.223.576-.638 1.412-1.632 2.539l2.624 2.626c1.14-1.012 1.963-1.427 2.521-1.649zm17.521-19.469-1.578-1.58-17.079 17.082 1.583 1.586 17.074-17.088zm3.78-2.216-3.16-3.163c-.528.282-1.301 1.056-1.584 1.587l3.159 3.162c.537-.315 1.271-1.051 1.585-1.586zM45.91 3.33l-1.27-1.25c-1.13.359-3.949 2-4.698 4.24l-.07.22-8.002 7.994 1.579 1.58 7.982-7.984.23-.08c2.21-.739 3.86-3.56 4.249-4.72zm-4.954 1.71 1.998 2 .999-1-1.999-2-.998 1z"/></defs><use xlink:href="#a"/></svg>