<svg xmlns="http://www.w3.org/2000/svg" xmlns:xlink="http://www.w3.org/1999/xlink" width="48" height="48" viewBox="0 0 48 48"><defs><path id="a" d="m38.119 3-.125-.247C37.936 1.431 37.389 0 36 0H12c-1.389 0-1.935 1.431-1.995 2.753L9.882 3H8v7h2V9h.018c.187 5.59 3.423 8.479 5.812 10.6 1.117.992 2.081 1.848 2.18 2.542.939 6.575-.85 18.257-6.717 23.151-.395.395-.718 1.053-.442 1.717.41.99 1.718.99 2.149.99h22c.43 0 1.74 0 2.15-.99.275-.664-.049-1.322-.51-1.777-5.801-4.834-7.59-16.516-6.65-23.092.1-.693 1.064-1.549 2.18-2.541 2.389-2.12 5.627-5.01 5.812-10.6H38v1h2V3h-1.881zM12 3.236V3c0-.315.075-.781.172-1h23.656c.092.208.17.648.172 1v.236l.383.764H30V3h-2v1h-8V3h-2v1h-6.382L12 3.236zM28 6v1h-8V6h8zM10 7V6h8v1h-8zm20.842 11.104c-1.41 1.254-2.629 2.335-2.832 3.755-.961 6.737.824 18.544 6.5 24.142H13.482c5.694-5.666 7.468-17.424 6.508-24.142-.203-1.42-1.421-2.501-2.832-3.754-2.219-1.97-4.955-4.413-5.14-9.104H18v1h2V9h8v1h2V9h5.982c-.185 4.691-2.92 7.135-5.14 9.104zM38 7h-8V6h8v1z"/></defs><use xlink:href="#a"/></svg>