<svg xmlns="http://www.w3.org/2000/svg" xmlns:xlink="http://www.w3.org/1999/xlink" width="48" height="48" viewBox="0 0 48 48"><defs><path id="a" d="M24 4C13.738 4 6 9.159 6 16c0 8.897 12.28 28 18 28 6.056 0 18-18.579 18-28 0-6.841-7.738-12-18-12zm0 38C19.784 42 8 24.186 8 16c0-5.701 6.879-10 16-10s16 4.299 16 10c0 9.288-11.913 26-16 26zm10.102-18.423 1.812.844C34.855 26.698 29.35 38.059 25 38.059v-2c1.585 0 5.515-4.772 9.102-12.482zM38 17h-2c0-4.056-5.047-7-12-7V8c8.243 0 14 3.701 14 9z"/></defs><use xlink:href="#a"/></svg>