<svg xmlns="http://www.w3.org/2000/svg" xmlns:xlink="http://www.w3.org/1999/xlink" width="48" height="48" viewBox="0 0 48 48"><defs><path id="a" d="M26.689 43.088C32.488 33.072 44 12.953 44 11c0-.24-.02-.46-.07-.65-.14-.75-.54-1.16-.89-1.379-.65-.421-1.5-.421-2.49-.181-1.189.28-2.58.91-4.09 1.61-1.63.75-3.49 1.6-4.46 1.6-1.59 0-3.07-1.07-4.95-2.43C24.07 7.416 20.074 4.539 13 4.072V3c0-1.654-1.346-3-3-3H7C5.346 0 4 1.346 4 3v2h2.139l5.702 38.016A2.996 2.996 0 0 0 9 46v2h20v-2c0-1.416-.989-2.6-2.311-2.912zM37.3 12.221c.771-.351 1.891-.871 2.851-1.23l.007-.002c-.267.959-1.332 2.759-2.976 5.139l-.688-3.541.806-.366zm2.167 4.017-.037.072c-.359.68-.75 1.41-1.17 2.18-.1.189-.21.39-.319.59-.53.98-1.11 2.029-1.71 3.12-.141.26-.29.521-.44.78a.15.15 0 0 1-.021.049c-.31.551-.619 1.121-.939 1.691-.01.029-.03.049-.05.079-.46.83-.931 1.671-1.41 2.521-.23.43-.47.85-.72 1.279-.431.771-.87 1.551-1.311 2.33-.05.09-.1.18-.149.26-.41.73-.83 1.461-1.24 2.19C28.02 36.779 26.1 40.1 24.42 43h-6.222c5.396-6.217 16.197-18.928 21.269-26.762zm-4.856-2.858.972 4.999c-.488.67-1.007 1.371-1.555 2.1l-1.274-6.556c.57-.099 1.193-.29 1.857-.543zm-3.91.46 1.705 8.769a303.67 303.67 0 0 1-1.571 2.019l-2.264-11.641c.694.387 1.395.685 2.13.853zm-4.821-2.651.354.256 2.965 15.246a490.66 490.66 0 0 1-1.58 1.968L23.96 9.842c.681.453 1.314.911 1.92 1.347zm-4.226-2.728 4.32 22.217c-.523.639-1.051 1.281-1.588 1.93L19.5 7.479c.771.299 1.488.63 2.154.982zM17.325 6.77l5.411 27.82c-.528.631-1.06 1.263-1.596 1.896L15.279 6.338c.72.117 1.403.262 2.046.432zm-4.132-.68 6.29 32.348a493.72 493.72 0 0 1-2.816 3.273L11.312 6.008c.655.006 1.28.035 1.881.082zM6 3c0-.551.449-1 1-1h3c.551 0 1 .449 1 1H6zm2.161 2h.978l5.7 38h-.978l-5.7-38zM11 46c0-.551.449-1 1-1h14c.552 0 1 .449 1 1H11z"/></defs><use xlink:href="#a"/></svg>