<svg xmlns="http://www.w3.org/2000/svg" xmlns:xlink="http://www.w3.org/1999/xlink" width="48" height="48" viewBox="0 0 48 48"><defs><path id="a" d="M35 4a1 1 0 1 1 2 0 1 1 0 1 1-2 0zM24 14c1.103 0 2-.897 2-2s-.897-2-2-2-2 .897-2 2 .897 2 2 2zm12 29a1 1 0 1 0 0-2 1 1 0 1 0 0 2zM17 12c0-3.859 3.141-7 7-7s7 3.141 7 7-3.141 7-7 7-7-3.141-7-7zm2 0c0 2.757 2.243 5 5 5s5-2.243 5-5-2.243-5-5-5-5 2.243-5 5zm-7 31a1 1 0 1 0 0-2 1 1 0 1 0 0 2zm8-12c0-2.206 1.794-4 4-4s4 1.794 4 4-1.794 4-4 4-4-1.794-4-4zm2 0c0 1.103.897 2 2 2s2-.897 2-2-.897-2-2-2-2 .897-2 2zM40 0v46h-2v2h-5v-2H15v2h-5v-2H8V0h32zm-2 2H10v42h28V2zM12 5a1 1 0 1 0 0-2 1 1 0 1 0 0 2zm2 26c0-5.514 4.486-10 10-10s10 4.486 10 10-4.486 10-10 10-10-4.486-10-10zm2 0c0 4.411 3.589 8 8 8s8-3.589 8-8-3.589-8-8-8-8 3.589-8 8z"/></defs><use xlink:href="#a"/></svg>