<svg xmlns="http://www.w3.org/2000/svg" xmlns:xlink="http://www.w3.org/1999/xlink" width="48" height="48" viewBox="0 0 48 48"><defs><path id="a" d="M40.009 0c-2.853 0-5.202.92-6.615 2.592C32.223 3.975 31.722 5.793 31.886 8H16.114c.163-2.207-.338-4.025-1.508-5.408C13.192.92 10.843 0 7.99 0 3.514 0 .004 3.514 0 8.002l.001 1.11h1.001l.884-.072.119-.864C2.219 6.617 3.022 4 5.99 4c1.746 0 3.996.275 4.806 1.585.639 1.034.393 2.798-.692 4.968C3.781 23.199 3.366 24.374 2.02 29.758c-1.414 5.656-.993 9.826 1.288 12.748 2.199 2.815 6.146 4.303 11.701 4.463V48h18v-1.032c5.545-.162 9.486-1.649 11.682-4.462 2.281-2.922 2.703-7.092 1.288-12.748-1.346-5.385-1.761-6.559-8.084-19.205-1.085-2.17-1.331-3.934-.691-4.968C38.013 4.275 40.264 4 42.009 4c2.968 0 3.771 2.617 3.985 4.176l.132.943.879-.007c.01 0 .995-.021.994-1.113C47.995 3.514 44.485 0 40.009 0zm-21 39V10h1v29h-1zm3-29h1v29h-1V10zm3 0h1v29h-1V10zm3 0h1v29h-1V10zm3 29V10h1.177c.523 2.486 1.634 5.935 2.808 9.572 1.274 3.947 2.593 8.028 3.029 10.595.563 3.318.051 6.304-1.37 7.985-.859 1.017-2.085 1.611-3.644 1.787V39h-2zM14.99 44.985c-4.899-.147-8.296-1.394-10.105-3.711-1.877-2.403-2.179-6.013-.924-11.032 1.241-4.963 1.464-5.857 7.933-18.795 1.447-2.895 1.65-5.221.604-6.914-.902-1.457-2.668-2.293-5.26-2.488.246-.029.497-.045.752-.045 1.306 0 3.703.244 5.089 1.883.973 1.15 1.284 2.816.925 4.951-.398 2.367-1.671 6.311-2.902 10.123-1.296 4.015-2.636 8.166-3.098 10.876-.317 1.868-.774 6.546 1.814 9.61 1.249 1.478 2.985 2.32 5.171 2.514v3.028zm-3.643-6.833c-1.421-1.682-1.933-4.667-1.371-7.984.438-2.567 1.755-6.648 3.029-10.596 1.174-3.638 2.286-7.086 2.809-9.572h1.195v29h-2v.941c-1.568-.172-2.8-.767-3.662-1.789zM17.009 41h14v5h-14v-5zM35.502 4.533c-1.047 1.693-.844 4.02.604 6.914 6.469 12.936 6.692 13.83 7.934 18.795 1.255 5.02.952 8.629-.925 11.032-1.81 2.317-5.206 3.563-10.105 3.711v-3.028c2.187-.193 3.923-1.036 5.171-2.514 2.589-3.064 2.132-7.742 1.814-9.611-.461-2.709-1.802-6.86-3.098-10.875-1.23-3.812-2.504-7.756-2.901-10.123-.359-2.135-.048-3.801.925-4.951C36.306 2.244 38.703 2 40.009 2c.256 0 .506.016.753.045-2.593.195-4.36 1.031-5.26 2.488z"/></defs><use xlink:href="#a"/></svg>