<svg xmlns="http://www.w3.org/2000/svg" xmlns:xlink="http://www.w3.org/1999/xlink" width="48" height="48" viewBox="0 0 48 48"><defs><path id="a" d="M20 23c-2.757 0-5 2.243-5 5s2.243 5 5 5 5-2.243 5-5-2.243-5-5-5zm0 8c-1.654 0-3-1.346-3-3s1.346-3 3-3 3 1.346 3 3-1.346 3-3 3zM9.707 32.293l6 6-1.414 1.414-6-6 1.414-1.414zM47.336 6.074c.406-.407.664-.943.664-1.965C48 1.459 46.58 0 44 0c-1.076 0-1.619.271-2.057.719A1.075 1.075 0 0 0 41.71.29c-.37-.37-1.05-.37-1.42 0-.181.189-.29.439-.29.71 0 .26.109.52.29.71.164.155.382.243.606.269a7.312 7.312 0 0 1-.937.824 1.048 1.048 0 0 0-.25-.513c-.37-.37-1.05-.37-1.42 0-.18.189-.289.45-.289.71 0 .27.109.52.29.7.095.095.204.169.325.221a9.62 9.62 0 0 0-.677.778 1.053 1.053 0 0 0-.229-.409c-.38-.37-1.04-.37-1.42 0-.18.189-.289.45-.289.71s.109.52.29.71c.19.189.45.29.71.29.046 0 .089-.02.135-.026-.189.39-.328.786-.365 1.166-.024.243-.002.449.037.64L26.198 18.388a13.565 13.565 0 0 0-1.418-.067C17.96 18.32 0 22.84 0 33c0 8.27 6.73 15 15 15 4.59 0 8.71-3.85 11.609-10.85 2.025-4.9 3.386-11.548 2.98-15.326l10.625-10.625a2.094 2.094 0 0 0 .646.031c.38-.037.775-.177 1.166-.365-.005.046-.026.088-.026.135 0 .27.109.52.29.71.19.18.45.29.71.29s.52-.11.71-.29c.18-.19.29-.45.29-.71s-.11-.521-.29-.71a.931.931 0 0 0-.415-.225c.295-.227.553-.458.784-.68.05.118.122.225.211.314.19.191.44.301.71.301.26 0 .52-.11.71-.29.18-.19.29-.45.29-.71s-.11-.521-.29-.71c-.138-.139-.325-.206-.519-.24.312-.413.588-.709.832-.934.027.219.114.433.267.594.19.18.45.29.71.29s.52-.11.71-.29c.18-.19.29-.45.29-.71s-.11-.521-.29-.71a.944.944 0 0 0-.374-.216zM24.4 37.22C22.94 40.5 19.77 46 15 46 7.83 46 2 40.17 2 33c0-8.021 15.356-12.449 22.255-12.669l-.669.669L27 24.414l.668-.668c-.109 3.225-1.039 8.476-3.268 13.474zM27 21.586 26.414 21 38 9.414l.586.586L27 21.586zM45.601 4.913c-.549.379-1.378.952-2.432 2.532-.343.514-1.927 1.8-2.508 1.8h-.002l-1.903-1.903c-.004-.578 1.285-2.168 1.799-2.51 1.541-1.027 2.145-1.841 2.544-2.379C43.434 2 43.434 2 44 2c1.458 0 2 .571 2 2.109 0 .528 0 .528-.399.804zm-2.308-1.62 1.414 1.414-3 3-1.414-1.414 3-3z"/></defs><use xlink:href="#a"/></svg>