<svg xmlns="http://www.w3.org/2000/svg" xmlns:xlink="http://www.w3.org/1999/xlink" width="48" height="48" viewBox="0 0 48 48"><defs><path id="a" d="M45.706 6.297C44.182 4.773 42.345 4 40.249 4c-2.918 0-6.267 1.606-8.957 4.297-4.615 4.613-4.988 9.782-3.055 13.041a571.51 571.51 0 0 0-4.24 3.637 622.803 622.803 0 0 0-4.238-3.635c1.94-3.26 1.561-8.43-3.051-13.04-2.69-2.69-6.04-4.3-8.96-4.3-2.1 0-3.931.77-5.461 2.3-1.761 1.761-2.55 4.15-2.21 6.729.34 2.611 1.8 5.261 4.21 7.681 2.781 2.771 5.921 4.3 8.852 4.3 1.539 0 2.969-.42 4.219-1.22a823.004 823.004 0 0 0 3.43 3.993C13.951 33.821 7.998 39.508 7.998 41c0 1.542 1.458 3 3 3 1.475 0 7.048-5.813 13.007-12.547C29.953 38.188 35.525 44 37 44c1.54 0 3-1.46 3-3 0-1.498-5.95-7.179-12.787-13.214a688.105 688.105 0 0 0 3.428-3.996 7.74 7.74 0 0 0 4.224 1.218c2.93 0 6.069-1.527 8.842-4.299 2.418-2.416 3.876-5.073 4.218-7.683.336-2.572-.451-4.962-2.219-6.729zM3.737 16.92c-.93-1.38-1.5-2.779-1.68-4.15-.261-1.97.31-3.72 1.649-5.06C4.837 6.58 6.198 6 7.748 6c1.63 0 3.46.65 5.189 1.8l.771 3.851-4.08-1.021 1 4-3.989-1 1.01 4.14-3.912-.85zm13.551 4.37c-1.12 1.13-2.56 1.72-4.149 1.72-2.351 0-4.94-1.279-7.291-3.59l4.5.98-.98-4.02 4.01 1-1-4 3.91.979-.91-4.56c4.842 4.922 3.751 9.651 1.91 11.491zm5.176 5.021-.175.152c-.36-.414-.723-.826-1.08-1.242.421.36.837.725 1.255 1.09zM10.907 41.992c-.398-.061-.841-.503-.901-.9.72-1.53 8.603-8.814 16.777-15.875-7.061 8.174-14.346 16.055-15.876 16.775zm27.083-.902c-.061.4-.5.84-.9.9-1.229-.581-6.176-5.789-11.75-12.053l.548-.627c6.285 5.576 11.521 10.551 12.102 11.78zm-3.126-18.082c-1.6 0-3.038-.592-4.158-1.713-1.842-1.842-2.928-6.576 1.912-11.489l-.91 4.551 3.917-.979-1 4 4.008-1.002-.986 4.024 4.504-.976c-2.356 2.308-4.937 3.584-7.287 3.584zM45.94 12.767c-.179 1.37-.751 2.775-1.676 4.155l-3.914.846 1.013-4.137-3.99.998 1-4-4.083 1.021.771-3.854C36.793 6.654 38.617 6 40.249 6c1.546 0 2.907.576 4.043 1.711 1.337 1.337 1.907 3.085 1.648 5.056z"/></defs><use xlink:href="#a"/></svg>