<svg xmlns="http://www.w3.org/2000/svg" xmlns:xlink="http://www.w3.org/1999/xlink" width="48" height="48" viewBox="0 0 48 48"><defs><path id="a" d="M36 12c1.654 0 3-1.346 3-3 0-.8-.319-1.523-.831-2.062l.711-1.318-1.76-.95-.737 1.369C36.256 6.022 36.131 6 36 6c-1.654 0-3 1.346-3 3 0 .747.284 1.423.738 1.949l-1.62 3.008L29.851 0H16.149L9.014 43.84 9 48h5v-3h18v3h5v-4l-4.355-26.805 2.826-5.249c.173.032.347.054.529.054zm-3.618 16h-5.555l4.266-7.922L32.382 28zM17.851 2H28.15l2.416 14.841L26 25.32V24h-2v-2h2v-2h-2v-2h2v-2h-2v-2h2v-2h-2v-2h2V8h-2V6h2V4h-6v2h2v2h-2v2h2v2h-2v2h2v2h-2v2h2v2h-2v2h2v2h-2v2h2v2h-8.382l4.233-26zm7.783 24-1.077 2H24v-2h1.634zM12 46h-1v-1h1v1zm23 0h-1v-1h1v1zm-2.292-16 2.116 13H11.176l2.117-13h19.415zM35 9a1.001 1.001 0 1 1 1 1c-.552 0-1-.449-1-1z"/></defs><use xlink:href="#a"/></svg>