<svg xmlns="http://www.w3.org/2000/svg" xmlns:xlink="http://www.w3.org/1999/xlink" width="48" height="48" viewBox="0 0 48 48"><defs><path id="a" d="M48 10c0-5.514-4.486-10-10-10-5.449 0-9.887 4.383-9.99 9.809l-.894 2.681L1.625 41.039 3.586 43 .293 46.293l1.414 1.414L5 44.414l1.949 1.949 29.458-25.395c-.01-.014-.014-.029-.023-.043l3.185-1.062C44.338 19.107 48 14.979 48 10zm-8.104 7.76c-.672-4.471-4.878-8.227-9.826-8.707a7.951 7.951 0 0 1 1.639-3.966c.271-.066.446-.099.455-.101 2.519-.419 5.479.566 7.922 2.637 2.437 2.064 3.897 4.803 3.914 7.333-.006.091-.002.192.005.313a8.017 8.017 0 0 1-4.109 2.491zM46 10c0 .85-.141 1.666-.388 2.434-.647-2.299-2.124-4.55-4.233-6.337-2.158-1.827-4.694-2.933-7.13-3.159A7.936 7.936 0 0 1 38 2c4.411 0 8 3.589 8 8zM7.051 43.637l-2.676-2.676 24.061-26.947c3.05.194 6.268 2.397 6.545 5.545L7.051 43.637zm22.303-31.535.356-1.07c3.827.332 7.821 3.289 8.252 7.261l-1.089.362c-.684-3.571-4.035-6.036-7.519-6.553z"/></defs><use xlink:href="#a"/></svg>