<svg xmlns="http://www.w3.org/2000/svg" xmlns:xlink="http://www.w3.org/1999/xlink" width="48" height="48" viewBox="0 0 48 48"><defs><path id="a" d="M42.866 2.009c-.196.026-4.906.677-13.14 3.03-7.008 2.002-12.942 4.941-13.191 5.066l-.555.275v26.214c-.727-.357-1.703-.589-3.021-.595-4.248 0-8.86 2.4-8.957 5.973-.029 1.049.305 1.963.965 2.646.857.889 2.25 1.366 4.027 1.381h.084c1.979 0 4.143-.555 5.788-1.486 2.022-1.144 3.136-2.746 3.136-4.514 0-.133-.008-.275-.021-.423v-17.73c1.58-.805 6.628-3.266 12.295-4.885 5.812-1.66 9.875-2.463 11.723-2.786l-.003 18.431c-.73-.363-1.716-.6-3.051-.605-4.234 0-8.832 2.4-8.928 5.973-.028 1.059.306 1.98.966 2.663.86.891 2.2 1.35 3.983 1.364h.085c1.979 0 4.147-.555 5.797-1.485 2.03-1.144 3.147-2.747 3.147-4.515L44 1.855l-1.134.154zM13.881 42.773C12.523 43.541 10.705 44 9.056 44c-1.21-.01-2.181-.283-2.65-.77-.286-.297-.418-.689-.404-1.203C6.063 39.723 9.727 38 12.997 38c3.005.014 3.005 1.355 3.005 2 0 1.369-1.328 2.325-2.121 2.773zm15.846-27.734c-5.051 1.442-9.529 3.484-11.746 4.57v-7.98c1.635-.773 6.674-3.061 12.295-4.668C36.068 5.306 40.142 4.5 42 4.175l-.001 7.969c-1.716.287-5.945 1.086-12.272 2.895zm10.139 23.733C38.502 39.541 36.679 40 35.027 40c-1.191-.01-2.146-.277-2.606-.754-.286-.297-.419-.695-.404-1.219.061-2.304 3.708-4.027 6.964-4.027 3.014.014 3.014 1.406 3.014 2 0 1.367-1.334 2.324-2.129 2.772z"/></defs><use xlink:href="#a"/></svg>