<svg xmlns="http://www.w3.org/2000/svg" xmlns:xlink="http://www.w3.org/1999/xlink" width="48" height="48" viewBox="0 0 48 48"><defs><path id="a" d="M28.909 8.293C26.072 7.555 25 7.123 25 5.5h-2l-.018 27.596c-.729-.357-1.705-.59-3.024-.596-4.247 0-8.86 2.4-8.956 5.973-.029 1.049.305 1.963.964 2.646.858.889 2.25 1.366 4.026 1.381H16.078c1.979 0 4.142-.555 5.787-1.486C23.887 39.87 25 38.268 25 36.5c0-.132-.008-.273-.02-.42l.013-20.152c.896.516 1.967.811 2.935 1.076C30.452 17.699 32 18.24 32 20.5c-.002 2.725-1.876 6.516-1.895 6.554L31.8 28.1c.393-.522.768-1.012 1.123-1.475C35.29 23.541 37 21.314 37 17.5c0-7.1-4.677-8.317-8.091-9.207zM16.055 40.5c-1.21-.01-2.181-.283-2.65-.77-.285-.297-.418-.689-.404-1.203.062-2.305 3.725-4.027 6.996-4.027 2.438.011 2.896.896 2.984 1.574l-.002.426H23c0 1.369-1.328 2.325-2.119 2.773-1.36.768-3.177 1.227-4.826 1.227zm12.403-25.424C26.001 14.4 25 13.978 25 12.5h-.004l.002-3.484c.997.586 2.238.909 3.407 1.213C31.797 11.112 35 11.946 35 17.5c0 1.657-.386 2.94-1.086 4.222.055-.415.086-.826.086-1.222 0-3.898-3.203-4.78-5.542-5.424z"/></defs><use xlink:href="#a"/></svg>