<svg xmlns="http://www.w3.org/2000/svg" xmlns:xlink="http://www.w3.org/1999/xlink" width="48" height="48" viewBox="0 0 48 48"><defs><path id="a" d="M48 6h-2V0h-8v6h-1V0h-8v6h-1V0h-8v6h-1V0h-8v6h-1V0H2v6H0v8h2v34h8V14h1v29h8V14h1v24h8V14h1v19h8V14h1v13.289h8V14h2V6zm-8-4h4v4h-4V2zm-9 0h4v4h-4V2zm-9 0h4v4h-4V2zm-9 0h4v4h-4V2zM4 2h4v4H4V2zm4 44H4V14h4v32zm9-5h-4V14h4v27zm9-5h-4V14h4v22zm9-5h-4V14h4v17zm9-5.711h-4V14h4v11.289zM46 12H2V8h44v4zM5 10a1 1 0 1 1 2 0 1 1 0 0 1-2 0zm18 0a1 1 0 1 1 2 0 1 1 0 0 1-2 0zm-9 0a1 1 0 1 1 2 0 1 1 0 0 1-2 0zm18 0a1 1 0 1 1 2 0 1 1 0 1 1-2 0zm9 0a1 1 0 1 1 2 0 1 1 0 1 1-2 0z"/></defs><use xlink:href="#a"/></svg>