<svg xmlns="http://www.w3.org/2000/svg" xmlns:xlink="http://www.w3.org/1999/xlink" width="48" height="48" viewBox="0 0 48 48"><defs><path id="a" d="M39 16h-8c-3.859 0-7-3.141-7-7 0-4.963-4.038-9-9-9H9C4.038 0 0 4.037 0 9v38h2v1h44.002v-1H48V25c0-4.963-4.037-9-9-9zM8 46H4V30h3v9h1v7zm6 0h-4v-7h1v-9h2v9h1v7zm6 0h-4v-7h1v-9h3v16zm6 0h-3.999V30H25v9h1v7zm6 0h-4v-7h1v-9h2v9h1v7zm6 0h-4v-7h1v-9h2v9h1v7zm6.002 0H40v-7h1v-9h3.002v16zM46 28H2V9c0-3.859 3.14-7 7-7h6c3.86 0 7 3.141 7 7 0 4.963 4.037 9 9 9h8c3.859 0 7 3.141 7 7v3z"/></defs><use xlink:href="#a"/></svg>