<svg xmlns="http://www.w3.org/2000/svg" xmlns:xlink="http://www.w3.org/1999/xlink" width="48" height="48" viewBox="0 0 48 48"><defs><path id="a" d="M14.501 15c0-1.93-1.57-3.5-3.501-3.5S7.499 13.07 7.499 15s1.57 3.5 3.501 3.5 3.501-1.57 3.501-3.5zm-5.002 0a1.502 1.502 0 0 1 3.002 0 1.502 1.502 0 0 1-3.002 0zm-.127-4.245-.689-3.601a8.16 8.16 0 0 1 4.634 0l-.689 3.601c-.51-.19-1.055-.3-1.628-.3s-1.118.109-1.628.3zm5.565 6.518a4.593 4.593 0 0 0 .553-1.561l3.464 1.203a8.17 8.17 0 0 1-2.317 4.014l-2.773-2.397a4.669 4.669 0 0 0 1.073-1.259zm-6.799 1.259L5.364 20.93a8.156 8.156 0 0 1-2.317-4.014l3.464-1.203c.088.537.267 1.064.553 1.561a4.63 4.63 0 0 0 1.074 1.258zM48 15c0-6.065-4.935-11-11-11-4.264 0-7.961 2.443-9.785 6h-6.43C18.961 6.443 15.264 4 11 4 4.935 4 0 8.935 0 15c0 4.265 2.443 7.961 6 9.786V44h36V24.786c3.557-1.825 6-5.521 6-9.786zM2 15c0-4.963 4.037-9 9-9s9 4.037 9 9-4.037 9-9 9-9-4.037-9-9zm38 27H8V25.573c.955.272 1.959.427 3 .427 6.065 0 11-4.935 11-11 0-1.041-.155-2.045-.427-3h4.854A10.928 10.928 0 0 0 26 15c0 6.065 4.935 11 11 11 1.041 0 2.045-.155 3-.427V42zm-3-18c-4.963 0-9-4.037-9-9s4.037-9 9-9 9 4.037 9 9-4.037 9-9 9zm0-12.5c-1.93 0-3.5 1.57-3.5 3.5s1.57 3.5 3.5 3.5 3.5-1.57 3.5-3.5-1.57-3.5-3.5-3.5zm0 5c-.827 0-1.5-.673-1.5-1.5s.673-1.5 1.5-1.5 1.5.673 1.5 1.5-.673 1.5-1.5 1.5zm1.627 2.745.691 3.601a8.171 8.171 0 0 1-4.636 0l.691-3.601c.509.19 1.055.3 1.627.3s1.118-.109 1.627-.3zm6.326-6.161-3.463 1.203a4.653 4.653 0 0 0-.554-1.561 4.629 4.629 0 0 0-1.073-1.259l2.771-2.397a8.17 8.17 0 0 1 2.319 4.014zm-11.89-.357a4.638 4.638 0 0 0-.554 1.561l-3.463-1.203a8.154 8.154 0 0 1 2.318-4.014l2.771 2.397a4.648 4.648 0 0 0-1.072 1.259zM36 33h2v2h-2v5h-2v-5h-2v-2h2v-4h2v4zm-7-2h2v2h-2v7h-2v-7h-2v-2h2v-2h2v2zm-19 9h12V29H10v11zm2-9h8v7h-2.151a1.996 1.996 0 0 0-.575-.771L18 33l-2.024 3.761A2 2 0 0 0 14.152 38H12v-7z"/></defs><use xlink:href="#a"/></svg>