<svg xmlns="http://www.w3.org/2000/svg" xmlns:xlink="http://www.w3.org/1999/xlink" width="48" height="48" viewBox="0 0 48 48"><defs><path id="a" d="m44.711 29.29-11-11a1 1 0 0 0-1.6 1.16c.6 1.21.59 2.61-.04 4.18-2.021 5.04-3.07 7.96-3.07 14.12 0 1.21-1.35 1.25-1.5 1.25s-1.5-.04-1.5-1.25V33h1v1h2v-4h-2v1h-1v-3h1v1h2v-4h-2v1h-1v-3h1v1h2v-4h-2v1h-1v-3h1v1h2v-4h-2v1h-1v-3h1v1h2v-4h-2v1h-1V8h1v1h2V5h-2v1h-1v-.01c0-4.391-3.59-5.99-6-5.99-1.88 0-2.85.58-3.87 1.2-.905.54-1.965 1.17-4.131 1.524v-.905L4.52 3.066 1.879 5.707 12 7.152v-.664a9.17 9.17 0 0 0 1.22.092c2 0 3.55-.689 4.68-1.189.6-.271 1.17-.531 1.5-.531.08 0 .12.021.15.031 1.7.85 1.76 1.6.75 9.93-.61 5.01-1.53 12.59-2.3 24.109-.15 2.211.63 4.35 2.19 6.01 1.84 1.97 4.621 3.06 7.811 3.06 6.28 0 9.28-4.561 9.99-8.84 1.189-7.17 3.59-8.16 6.01-8.16.4 0 .77-.24.92-.62.16-.37.07-.8-.21-1.09zM10 4.181v.667l-2.153-.309L10 4.181zM36.011 38.84c-.279 1.68-1.68 7.16-8.01 7.16-2.63 0-4.891-.859-6.351-2.42-1.18-1.26-1.76-2.859-1.65-4.51.76-11.471 1.68-19.021 2.28-24.01 1.02-8.41 1.26-10.41-1.83-11.951-.32-.159-.67-.25-1.05-.25-.75 0-1.48.33-2.31.701-1.11.489-2.41 1.06-4.05 1.01 2.05-.42 3.16-1.08 4.11-1.66C18.07 2.359 18.681 2 20 2c.04 0 4 .05 4 4v31.75c0 2.13 1.76 3.25 3.5 3.25s3.5-1.12 3.5-3.25c0-5.8.95-8.43 2.93-13.38.33-.83.53-1.64.601-2.431l7.35 7.351c-3.93 1.16-5.21 5.601-5.87 9.55z"/></defs><use xlink:href="#a"/></svg>