<svg xmlns="http://www.w3.org/2000/svg" xmlns:xlink="http://www.w3.org/1999/xlink" width="48" height="48" viewBox="0 0 48 48"><defs><path id="a" d="M9 16H7v-2h2v2zm36-5H31v2h14v-2zM9 17H7v2h2v-2zm36-3H31v2h14v-2zM5 11H3v2h2v-2zm8 6h-2v2h2v-2zM48 6v35h-1.998v1H2v-1H0V6h48zM8 33H7v-9H4v16h4v-7zm6 0h-1v-9h-2v9h-1v7h4v-7zm6-9h-3v9h-1v7h4V24zm6 9h-1v-9h-2.999v16H26v-7zm6 0h-1v-9h-2v9h-1v7h4v-7zm6 0h-1v-9h-2v9h-1v7h4v-7zm6.002-9H41v9h-1v7h4.002V24zM46 8H2v14h44V8zM5 17H3v2h2v-2zm0-3H3v2h2v-2zm12 3h-2v2h2v-2zm-4-6h-2v2h2v-2zm0 3h-2v2h2v-2zm4 0h-2v2h2v-2zm-8-3H7v2h2v-2zm36 6H31v2h14v-2zm-28-6h-2v2h2v-2zm12 8H19v-8h10v8zm-2-6h-6v4h6v-4z"/></defs><use xlink:href="#a"/></svg>