<svg xmlns="http://www.w3.org/2000/svg" xmlns:xlink="http://www.w3.org/1999/xlink" width="48" height="48" viewBox="0 0 48 48"><defs><path id="a" d="M47 26c0-2.757-2.243-5-5-5-.233 0-.457.037-.683.068a20.18 20.18 0 0 0-4.604-5.471A4.89 4.89 0 0 0 37 14c0-2.757-2.243-5-5-5-1.789 0-3.35.953-4.233 2.369A20.026 20.026 0 0 0 23.981 11c-1.283 0-2.534.133-3.75.365C19.347 9.951 17.787 9 16 9c-2.757 0-5 2.243-5 5 0 .551.111 1.07.276 1.566a20.13 20.13 0 0 0-4.628 5.499C6.434 21.037 6.222 21 6 21c-2.757 0-5 2.243-5 5a5.004 5.004 0 0 0 3.003 4.578c-.003.142-.022.279-.022.422 0 .066.007.133.019.195.023 3.412.641 5.74 1.839 6.92A2.98 2.98 0 0 0 7.967 39h.048c1.188-.018 2.6-1.232 4.785-3.229.618-.566 1.416-1.295 1.898-1.65.124.116.263.238.413.364V35c0 .316.149.613.403.803C17.501 37.281 20.271 38 23.981 38s6.479-.719 8.467-2.197a1 1 0 0 0 .403-.803v-.515c.151-.127.292-.251.417-.368.5.359 1.341 1.118 1.991 1.705 2.179 1.967 3.583 3.161 4.727 3.178.753-.006 1.44-.285 2.017-.854C43.254 36.914 44 34.242 44 31a.943.943 0 0 0-.02-.193c-.001-.072-.012-.141-.013-.213A5.006 5.006 0 0 0 47 26zM4.176 28.365A2.987 2.987 0 0 1 3 26a2.995 2.995 0 0 1 2.646-2.965 19.794 19.794 0 0 0-1.47 5.33zm36.149-4.853a17.88 17.88 0 0 1 1.534 5.475A2.998 2.998 0 0 1 39 26a3 3 0 0 1 1.325-2.488zM32 11c1.654 0 3 1.346 3 3 0 .105-.021.204-.031.307a19.959 19.959 0 0 0-5.096-2.42A2.992 2.992 0 0 1 32 11zm-2.973 2.734a17.888 17.888 0 0 1 5.078 2.398A2.985 2.985 0 0 1 32 17c-1.654 0-3-1.346-3-3 0-.092.019-.178.027-.266zM19 14c0 1.654-1.346 3-3 3-.829 0-1.58-.338-2.123-.883a17.94 17.94 0 0 1 5.095-2.395c.008.093.028.182.028.278zm-3-3a2.99 2.99 0 0 1 2.121.88 19.956 19.956 0 0 0-5.092 2.405C13.02 14.189 13 14.098 13 14c0-1.654 1.346-3 3-3zM7.639 23.493A2.995 2.995 0 0 1 9 26a2.997 2.997 0 0 1-2.907 2.99 17.828 17.828 0 0 1 1.546-5.497zm32.96 13.23c-.257.252-.46.292-.562.279-.586-.092-2.44-1.766-3.437-2.664-1.604-1.447-2.672-2.412-3.516-2.412-.238 0-.455.1-.664.264-.039-.028-.075-.061-.119-.083a1.003 1.003 0 0 0-1.046.091C29.647 33.394 27.2 34 23.981 34c-3.219 0-5.666-.606-7.273-1.803a1 1 0 0 0-1.046-.091c-.043.022-.079.054-.118.081-.948-.746-2.091.277-4.094 2.107-1.004.919-2.875 2.63-3.465 2.706-.284.01-.519-.092-.742-.311C6.869 36.322 6 35.03 6 31c2.757 0 5-2.243 5-5 0-1.812-.978-3.387-2.424-4.264a18.115 18.115 0 0 1 3.725-4.402C13.217 18.35 14.528 19 16 19c2.757 0 5-2.243 5-5 0-.247-.038-.484-.073-.721A17.879 17.879 0 0 1 23.981 13a17.9 17.9 0 0 1 3.091.285c-.034.236-.072.471-.072.715 0 2.757 2.243 5 5 5 1.462 0 2.767-.643 3.682-1.646a18.123 18.123 0 0 1 3.71 4.399C37.963 22.636 37 24.201 37 26a5.004 5.004 0 0 0 4.981 4.998V31c0 .062.006.125.018.184-.026 2.521-.582 4.732-1.4 5.539zm3.196-8.334a19.856 19.856 0 0 0-1.477-5.356A2.992 2.992 0 0 1 45 26c0 .979-.478 1.842-1.205 2.389z"/></defs><use xlink:href="#a"/></svg>