<svg xmlns="http://www.w3.org/2000/svg" xmlns:xlink="http://www.w3.org/1999/xlink" width="48" height="48" viewBox="0 0 48 48"><defs><path id="a" d="M48 24c0-2.638-2.061-4.783-4.652-4.965a19.878 19.878 0 0 0-2.543-5.83A4.917 4.917 0 0 0 42 10c0-2.757-2.243-5-5-5a4.978 4.978 0 0 0-3.477 1.42 19.95 19.95 0 0 0-4.559-1.77C28.781 2.059 26.637 0 24 0s-4.78 2.059-4.964 4.648a19.82 19.82 0 0 0-4.562 1.77A4.977 4.977 0 0 0 11 5c-2.757 0-5 2.243-5 5 0 1.225.454 2.335 1.191 3.2a19.855 19.855 0 0 0-2.543 5.835C2.058 19.221 0 21.363 0 24s2.058 4.779 4.647 4.965a19.901 19.901 0 0 0 2.543 5.834A4.922 4.922 0 0 0 6 38c0 2.757 2.243 5 5 5a4.972 4.972 0 0 0 3.473-1.418 19.928 19.928 0 0 0 4.562 1.77C19.22 45.941 21.363 48 24 48s4.781-2.059 4.965-4.65a19.816 19.816 0 0 0 4.559-1.771A4.97 4.97 0 0 0 37 43c2.757 0 5-2.243 5-5a4.916 4.916 0 0 0-1.197-3.207 19.903 19.903 0 0 0 2.541-5.828C45.938 28.785 48 26.639 48 24zm-2 0c0 1.39-.954 2.551-2.238 2.89.14-.949.236-1.913.237-2.9a20.084 20.084 0 0 0-.234-2.878A2.994 2.994 0 0 1 46 24zM37 7c1.654 0 3 1.346 3 3 0 .549-.165 1.051-.426 1.491a20.157 20.157 0 0 0-4.245-3.95A2.932 2.932 0 0 1 37 7zM24 2c1.388 0 2.547.951 2.889 2.233A20.122 20.122 0 0 0 23.998 4c-.982 0-1.941.096-2.886.232A2.995 2.995 0 0 1 24 2zM8 10c0-1.654 1.346-3 3-3 .624 0 1.188.209 1.667.538a20.166 20.166 0 0 0-4.245 3.946A2.893 2.893 0 0 1 8 10zM2 24c0-1.387.951-2.546 2.231-2.888A20.08 20.08 0 0 0 3.999 24c0 .982.095 1.942.233 2.888A2.997 2.997 0 0 1 2 24zm9 17c-1.654 0-3-1.346-3-3 0-.547.163-1.047.422-1.484a20.164 20.164 0 0 0 4.245 3.946A2.926 2.926 0 0 1 11 41zm13 5a2.995 2.995 0 0 1-2.888-2.232c.945.136 1.904.232 2.886.232.984 0 1.944-.096 2.891-.233A2.997 2.997 0 0 1 24 46zm16-8c0 1.654-1.346 3-3 3a2.932 2.932 0 0 1-1.672-.541 20.168 20.168 0 0 0 4.245-3.952c.262.44.427.943.427 1.493zm-16.002 4c-9.925 0-18-8.074-18-18s8.075-18 18-18c9.916 0 17.991 8.07 18.001 18.009C41.989 33.93 33.914 42 23.998 42z"/></defs><use xlink:href="#a"/></svg>