<svg xmlns="http://www.w3.org/2000/svg" xmlns:xlink="http://www.w3.org/1999/xlink" width="48" height="48" viewBox="0 0 48 48"><defs><path id="a" d="M23.371 11.496c.651-1.18 1.379-1.935 2.167-2.273a.986.986 0 0 0 .958.793c.48 0 .862-.345.959-.796.787.336 1.512 1.091 2.16 2.266l15 27.979 1.762-.945-15.005-27.99c-.749-1.358-1.622-2.314-2.602-2.887 1.647-.494 5.368-1.358 9.562-.66.734.123 1.468-.09 2.063-.594a3.168 3.168 0 0 0 1.101-2.391 3.003 3.003 0 0 0-3-2.998c-6.291 0-12.385 5.034-12.642 5.248a1 1 0 0 0-.358.768v.121c-1.206.283-2.638 1.153-3.876 3.394L5.615 39.633c-.748 1.354-1.772 3.209-.521 5.375C6.14 46.816 8.032 47 9.498 47c.196 0 .386-.004.563-.007l32.427-.006-.055-2H10.56l-.533.007c-1.57.025-2.646-.027-3.201-.986-.652-1.131-.22-2.031.541-3.408l16.004-29.104zM38.496 3a1 1 0 0 1 1 .998c0 .322-.154.662-.394.865-.146.122-.295.168-.442.146a21.954 21.954 0 0 0-3.603-.293c-1.314 0-2.526.112-3.587.273C33.502 3.941 36.018 3 38.496 3zm-16.127-.512-19 34-1.746-.977 19-34 1.746.977z"/></defs><use xlink:href="#a"/></svg>