<svg xmlns="http://www.w3.org/2000/svg" xmlns:xlink="http://www.w3.org/1999/xlink" width="48" height="48" viewBox="0 0 48 48"><defs><path id="a" d="M47.828 6.598C47.642 6.117 46.991 5 45.005 5c-.905 0-1.826.423-2.734 1.256L17.965 28.575l-3.162-3.167c8.229-7.414 11.334-7.424 12.572-7.424l.589.006a1.001 1.001 0 0 0 .703-1.706l-7.969-7.99a1.003 1.003 0 0 0-1.088-.22 1.002 1.002 0 0 0-.62.92l.003.33c.037 1.986.135 7.261-16.736 26.007l-.005.008C1.117 36.473.017 37.689 0 38.995-.021 40.693 2.251 42.977 3.988 43h.034c1.36 0 2.475-1.098 3.552-2.161l12.941-11.886 1.636 1.612-1.817 1.668a1.232 1.232 0 0 0-.066.06c-.664.668-1.286.706-1.289.707a1.002 1.002 0 0 0-.707 1.707l.999 1a1 1 0 0 0 1.067.213 1.02 1.02 0 0 0 .64-.896c.001-.025.039-.631.647-1.259l.043-.042 23.954-21.984c1.94-1.784 2.766-3.705 2.206-5.141zM20.872 11.3l4.813 4.827c-1.845.357-4.908 1.613-10.154 6.012 3.868-5.6 5.013-8.834 5.341-10.839zM6.291 39.295l-.121.121C5.453 40.121 4.562 41 4.021 41h-.006c-.68-.01-2.021-1.428-2.015-1.979.008-.616 1.239-1.843 1.703-2.306.01-.01.013-.023.022-.033.006-.006.013-.007.018-.013.741-.823 1.452-1.599 2.148-2.351l2.783 2.787-2.383 2.19zm3.859-3.543-2.892-2.896c2.261-2.394 4.277-4.408 6.071-6.093l3.162 3.166-6.341 5.823zm13.476-6.541-1.637-1.612 1.129-1.036 1.636 1.613-1.128 1.035zM44.27 10.266 26.23 26.823l-1.637-1.613L43.624 7.73c.511-.47 1.002-.73 1.381-.73.195 0 .843.023.96.324.153.395-.172 1.541-1.695 2.942z"/></defs><use xlink:href="#a"/></svg>