<svg xmlns="http://www.w3.org/2000/svg" xmlns:xlink="http://www.w3.org/1999/xlink" width="48" height="48" viewBox="0 0 48 48"><defs><path id="a" d="M34 0c-1.55 0-2 .451-2 2 0 .32.07.621.13.9.298 1.291.925 4.15-7.65 15.127l-.442-.441-1.015 1.014-1.125-1.088.812-.82-1.422-1.408-2.981 3.014 1.422 1.406.762-.77 1.117 1.082-.984.984.801.803c-.464.557-.948 1.131-1.454 1.723l-.952-.953-1 1-1.086-1.09.796-.805-1.422-1.406-2.981 3.012 1.422 1.408.779-.787 1.079 1.082-1 1 1.192 1.195c-.487.551-.99 1.115-1.508 1.693L14 27.586l-.976.977-1.071-1.096.756-.762-1.419-1.41-2.981 3 1.419 1.41.815-.82 1.066 1.092L10.586 31l1.413 1.414c-.115.146-.23.291-.339.445-.45.48-.9.971-1.37 1.471-1.19 1.27-4.31 4.461-7.73 6.76-.05.01-.12.01-.2.02-.64.07-2.36.271-2.36 1.87C0 44.25 3.74 48 5 48c1.6 0 1.81-1.709 1.88-2.35.01-.07.02-.15.03-.211 1.06-1.59 2.34-3.109 3.61-4.488 1.22 3.52 4.57 6.059 8.5 6.059a8.916 8.916 0 0 0 5.6-1.975L26 46.414 29.414 43l-1.366-1.367 1.565-1.607 1.386 1.391 3.414-3.414-1.425-1.43 1.565-1.607 1.445 1.451 3.414-3.414-1.492-1.496.789-.805c1.46-1.461 3.29-3.291 3.31-6.682a8.87 8.87 0 0 0-2.6-6.34c-.11-.109-.229-.209-.35-.32 2.04-1.08 3.68-1.639 4.89-1.639.47 0 .81.08 1.14.15.281.059.581.129.901.129 1.55 0 2-.449 2-2 0-3.91-11.44-14-14-14zM10.04 38.541c-1.65 1.709-3.44 3.75-4.87 5.898-.19.291-.23.611-.27.98-.02.09-.03.25-.06.391-.75-.561-2.09-1.9-2.64-2.66.14-.02.29-.041.39-.051.36-.039.68-.08.96-.27 2.51-1.67 4.82-3.74 6.5-5.4-.02.201-.03.391-.03.58 0 .18.02.35.02.532zM22.848 23.23l1.94 1.943c-.558.467-1.131.951-1.72 1.457l-1.674-1.678c.504-.591.989-1.165 1.454-1.722zm3.364 3.372 4.9 4.914-1.579 1.594-5.041-5.051c.586-.502 1.159-.989 1.72-1.457zm-7.997 2.002 1.208 1.209c-.549.488-1.111.99-1.688 1.51l-1.026-1.027a287.3 287.3 0 0 0 1.506-1.692zm2.624 2.628 5.291 5.303-1.585 1.596-5.392-5.393c.57-.515 1.132-1.017 1.686-1.506zM19.02 45.01c-3.86 0-7-3.139-7-7 0-1.518.489-2.979 1.398-4.178l.71.711a5.95 5.95 0 0 0-1.108 3.467c0 3.311 2.69 6 6 6a5.998 5.998 0 0 0 3.468-1.107l.705.705a6.908 6.908 0 0 1-4.173 1.402zm-4-7c0-.719.203-1.404.562-2.014l5.456 5.457c-.613.363-1.3.557-2.019.557a3.998 3.998 0 0 1-3.999-4zM26 43.586 13.414 31l.586-.586L26.586 43l-.586.586zm.629-3.371-.666-.666 1.582-1.596.653.656-1.569 1.606zm4.372-1.629L18.432 25.988l.585-.586L31.587 38l-.586.586zm.57-3.434-.63-.631 1.579-1.594.618.619-1.567 1.606zm4.43-1.566L23.45 21.002l.586-.586L36.587 33l-.586.586zm-6.012-10.033A101.056 101.056 0 0 1 34.4 20.27c.55.201 1.05.51 1.479.932a3.94 3.94 0 0 1 1.14 2.799c-.02 1.561-.869 2.43-1.729 3.301l-.777.787-4.524-4.536zm10.031.457c-.02 2.57-1.33 3.89-2.74 5.291l-.77.789-.59-.59.819-.83c.95-.959 2.26-2.279 2.279-4.65.011-1.59-.6-3.09-1.72-4.219-.3-.311-.64-.57-.99-.811.311-.189.62-.4.91-.58.28.211.54.43.78.68a6.89 6.89 0 0 1 2.022 4.92zm5.52-10.09c-.38-.09-.89-.199-1.58-.199-2.217 0-6.141 1.133-15.398 8.4l-2.651-2.658c9.312-11.867 8.61-15.055 8.17-17.002A2.738 2.738 0 0 1 34 2c2.01.35 12 9.301 12 12-.1 0-.27-.039-.46-.08z"/></defs><use xlink:href="#a"/></svg>