<svg xmlns="http://www.w3.org/2000/svg" xmlns:xlink="http://www.w3.org/1999/xlink" width="48" height="48" viewBox="0 0 48 48"><defs><path id="a" d="M44.999 40a1 1 0 0 0-1.001 1c0 .283.118.798.307 1.235-.882.421-3.456 1.571-6.963 2.492 3.452-2.751 5.675-6.98 5.675-11.727 0-8.271-6.731-15-15.006-15-4.739 0-8.965 2.214-11.717 5.655 1.254-8.934 6.374-11.76 9.917-13.713C28.25 8.82 30.012 7.849 30.012 6c0-3.701-5.747-6-15.011-6C5.748 0 0 2.299 0 6c0 1.805 1.518 2.78 3.275 3.91 3.476 2.235 8.729 5.613 8.729 18.091 0 12.979 6.879 17.48 10.996 19.01 1.953.817 3.8.989 5.007.989v-.002h.001V48h.002v-.002l.002.001V48h.006c8.98 0 16.607-3.686 17.447-4.105.009-.004.014-.013.021-.018C45.96 44.436 46.654 45 47 45c.553 0 1-.447 1-1s-2.448-4-3.001-4zM28.011 20.001c7.172 0 13.006 5.831 13.006 13 0 2.164-.539 4.202-1.479 5.999H36.83a2.992 2.992 0 0 0-1.815-1.814l-.001-11.185A4.006 4.006 0 0 0 31.013 22a3.979 3.979 0 0 0-3.002 1.383 3.977 3.977 0 0 0-3.001-1.382c-2.205 0-4 1.794-4.001 3.999v11.186A2.99 2.99 0 0 0 19.192 39h-1.291c-1.249-2.859-1.895-6.544-1.896-10.99 1.963-4.698 6.604-8.009 12.006-8.009zM31.197 39h-.367a2.971 2.971 0 0 0-.697-1.121 2.985 2.985 0 0 0-1.122-.696V25.999a2.002 2.002 0 0 1 4.003.002l.001 11.185c-.848.3-1.515.967-1.818 1.814zm-6.002 0h-.367a2.962 2.962 0 0 0-.698-1.121 2.985 2.985 0 0 0-1.122-.696V26a2.001 2.001 0 0 1 4.002-.001v11.187c-.847.3-1.513.967-1.815 1.814zm-3.186.001c.267 0 .519.104.708.294a.986.986 0 0 1 .292.705c0 .552-.45 1.001-1.002 1.001-.551 0-1-.449-1.001-1 .001-.552.451-1 1.003-1zm6.002 0a.99.99 0 0 1 .708.294.988.988 0 0 1 .293.704 1.007 1.007 0 0 1-1.003 1.003 1 1 0 0 1 .002-2.001zm7.004.999c0 .551-.449 1-1.001 1h-.002a1 1 0 0 1-.999-1 1.001 1.001 0 0 1 2.002 0zM4.357 8.229C2.852 7.26 2 6.68 2 6c0-1.939 4.557-4 13.013-4 8.443 0 12.999 2.061 12.999 4 0 .668-1.282 1.374-2.768 2.192-4.166 2.296-11.109 6.13-11.232 19.454l-.016.042C13.9 14.382 7.937 10.529 4.357 8.229zM28.009 46c-.952 0-2.573-.224-4.273-.85-1.955-.827-3.549-2.227-4.775-4.15h.231a2.997 2.997 0 0 0 2.816 2.001A2.997 2.997 0 0 0 24.826 41h.37a2.996 2.996 0 0 0 2.815 2.002h.003A3.003 3.003 0 0 0 30.826 41h.371a2.995 2.995 0 0 0 2.816 2 2.995 2.995 0 0 0 2.816-2h1.411c-2.382 3.037-6.077 5-10.229 5h-.002c-.001 0 .001 0 0 0z"/></defs><use xlink:href="#a"/></svg>