<svg xmlns="http://www.w3.org/2000/svg" xmlns:xlink="http://www.w3.org/1999/xlink" width="48" height="48" viewBox="0 0 48 48"><defs><path id="a" d="M17.816 2A2.996 2.996 0 0 0 15 0c-1.654 0-3 1.346-3 3s1.346 3 3 3a2.996 2.996 0 0 0 2.816-2H48V2H17.816zM15 4c-.551 0-1-.449-1-1s.449-1 1-1 1 .449 1 1-.449 1-1 1zm30 1a2.993 2.993 0 0 0-2.815 2H12v2h30.185A2.994 2.994 0 0 0 45 11c1.654 0 3-1.346 3-3s-1.346-3-3-3zm0 4a1.001 1.001 0 0 1 0-2 1.001 1.001 0 0 1 0 2zm-5 17h-2v-6h-8v6h-2V16h-8v10h-2V12h-8v14H8V8H0v40h8v-2h2v2h8v-2h2v2h8v-2h2v2h8v-2h2v2h8V24h-8v2zM6 46H2V10h4v36zm4-2H8v-2h2v2zm0-4H8v-8h2v8zm0-10H8v-2h2v2zm6 16h-4V14h4v32zm4-2h-2v-2h2v2zm0-4h-2v-8h2v8zm0-10h-2v-2h2v2zm6 16h-4V18h4v28zm4-2h-2v-2h2v2zm0-4h-2v-8h2v8zm0-10h-2v-2h2v2zm6 16h-4V22h4v24zm4-2h-2v-2h2v2zm0-4h-2v-8h2v8zm0-10h-2v-2h2v2zm2-4h4v20h-4V26z"/></defs><use xlink:href="#a"/></svg>