<svg xmlns="http://www.w3.org/2000/svg" xmlns:xlink="http://www.w3.org/1999/xlink" width="48" height="48" viewBox="0 0 48 48"><defs><path id="a" d="M24 0C10.767 0 0 10.767 0 24s10.767 24 24 24 24-10.767 24-24S37.233 0 24 0zm0 46C11.869 46 2 36.131 2 24S11.869 2 24 2s22 9.869 22 22-9.869 22-22 22zm0-33c-6.065 0-11 4.935-11 11s4.935 11 11 11 11-4.935 11-11-4.935-11-11-11zm0 20c-4.963 0-9-4.037-9-9s4.037-9 9-9 9 4.037 9 9-4.037 9-9 9zm0 3.333v2c-7.903 0-14.333-6.43-14.333-14.333h2c0 6.801 5.532 12.333 12.333 12.333zM38.333 24h-2c0-6.801-5.532-12.334-12.333-12.334v-2c7.903 0 14.333 6.431 14.333 14.334zM24 39.667v2c-9.741 0-17.667-7.926-17.667-17.667h2c0 8.639 7.028 15.667 15.667 15.667zM41.667 24h-2c0-8.639-7.028-15.666-15.667-15.666v-2c9.741 0 17.667 7.925 17.667 17.666zM24 43v2C12.421 45 3 35.579 3 24h2c0 10.477 8.523 19 19 19zm21-19h-2c0-10.477-8.523-19-19-19V3c11.579 0 21 9.421 21 21zm-21-3c-1.654 0-3 1.346-3 3s1.346 3 3 3 3-1.346 3-3-1.346-3-3-3zm0 4a1 1 0 1 1 0-2 1 1 0 0 1 0 2z"/></defs><use xlink:href="#a"/></svg>