<svg xmlns="http://www.w3.org/2000/svg" xmlns:xlink="http://www.w3.org/1999/xlink" width="48" height="48" viewBox="0 0 48 48"><defs><path id="a" d="M48 2.057a2 2 0 0 0-2-1.998c-1.07 0-2.25 1.836-2.75 3.056l-1.542-1.82a1 1 0 1 0-1.414 1.412l1.97 1.669-.889.887-1.667-1.969a1 1 0 1 0-1.414 1.413l1.968 1.668-.762.761-.442-.441-10.633 8.942c-1.364-.805-3.249-1.597-5.425-1.597-3.26 0-4.75 2.44-5.84 4.22-.55.91-1.12 1.84-1.59 1.84-.08 0-.16-.02-.25-.05-.54-.18-1.04-.04-1.34.33-.37.45-.26.979-.16 1.44.18.9.27 1.699-.53 2.5-1.01 1.01-1.97 1.529-2.83 1.529-.77 0-1.32-.399-1.64-.64-.22-.16-.46-.34-.83-.34l-.53.01-.3.41c-.21.29-.24.649-.11 1.06.46 1.351.03 1.68-1.83 2.4-.4.16-.8.32-1.17.5C2.44 30.061 0 31.279 0 35.02c0 4.351 4.12 8.521 4.29 8.69C4.47 43.891 8.64 48 13 48c3.81 0 5.27-2.77 6.34-4.8.75-1.41 1.24-2.28 2-2.28.12 0 .26.02.42.061.13.029.24.049.35.049l.66-.02.28-.55c.29-.58-.06-1.06-.24-1.319-.49-.66-1.49-2.041.9-4.42.45-.451.94-.66 1.54-.66.35 0 .67.069.95.119.27.061.49.09.649.09.551 0 .841-.289.971-.459.149-.221.3-.59.13-1.121-.17-.52.149-.85 1.8-1.84 1.79-1.08 4.25-2.56 4.25-5.82 0-2.174-.791-4.058-1.596-5.422L41.356 8.99l-.441-.44.757-.757 1.62 1.913a1 1 0 1 0 1.414-1.413l-1.912-1.62.88-.878 1.618 1.911a1 1 0 1 0 1.414-1.413l-1.812-1.536C46.132 4.268 48 3.108 48 2.057zM5.71 42.3a11.617 11.617 0 0 1-.323-.348l6.656-7.479 1.491 1.489-7.564 6.58a10.703 10.703 0 0 1-.26-.242zm23.01-13.17c-1.189.72-2.62 1.58-2.8 2.979a4.837 4.837 0 0 0-.67-.049c-1.13 0-2.13.42-2.96 1.25-1.94 1.939-2.54 3.859-1.81 5.729-1.43.431-2.21 1.899-2.91 3.229C16.56 44.189 15.61 46 13 46c-1.984 0-4.032-1.16-5.45-2.182l8.916-7.754-4.509-4.503-7.837 8.806C3.113 38.955 2 36.959 2 35.02c0-2.33 1.17-3.09 2.94-3.979.31-.16.66-.29 1-.42 1.19-.46 2.99-1.16 3.25-2.97.37.119.79.199 1.27.199 1.41 0 2.84-.709 4.25-2.109 1.28-1.29 1.32-2.7 1.18-3.66 1.39-.18 2.2-1.5 2.97-2.77.98-1.61 2-3.271 4.14-3.271 1.436 0 2.739.445 3.787.974l-8.266 6.952 5.542 5.535 6.961-8.257c.53 1.045.976 2.349.976 3.785 0 1.981-1.3 2.91-3.28 4.101zm-4.783-2.582-2.458-2.455 15.57-13.096-13.112 15.551zm-6.23-.23 4 3.994-1.413 1.416-4-3.996 1.413-1.414z"/></defs><use xlink:href="#a"/></svg>