<svg xmlns="http://www.w3.org/2000/svg" xmlns:xlink="http://www.w3.org/1999/xlink" width="48" height="48" viewBox="0 0 48 48"><defs><path id="a" d="m40 18.611-2-.391V15h-8v1.654l-2-.391V13h-8v1.698l-2-.392V11h-8v1.742l-2-.392V9H0v39h8v-4.351l2-.392V46h8v-4.307l2-.392V44h8v-4.264l2-.391V42h8v-4.221l2-.391V40h8V17h-8v1.611zm0 2.038v.962l-2-.391v-.963l2 .392zm0 3v8.701l-2 .392v-9.484l2 .391zm-10-4.956v.961l-2-.391v-.962l2 .392zm0 3v12.613l-2 .392V21.302l2 .391zm-10-4.957v.962l-2-.392v-.961l2 .391zm0 3v16.527l-2 .391V19.346l2 .39zm-10-4.957v.963l-2-.392v-.962l2 .391zm0 3V38.22l-2 .391V17.389l2 .39zM6 46H2V11h4v35zm2-4.389v-.962l2-.392v.963l-2 .391zM16 44h-4V13h4v31zm2-4.346v-.961l2-.392v.962l-2 .391zM26 42h-4V15h4v27zm2-4.302v-.962l2-.391v.961l-2 .392zM36 40h-4V17h4v23zm2-4.258v-.963l2-.391v.962l-2 .392zM42 19h4v19h-4V19zM3 42a1 1 0 1 1 2 0 1 1 0 1 1-2 0zm10-2a1 1 0 1 1 2 0 1 1 0 1 1-2 0zm10-2a1 1 0 1 1 2 0 1 1 0 1 1-2 0zm10-2a1 1 0 1 1 2 0 1 1 0 1 1-2 0zm12-2a1 1 0 1 1-2 0 1 1 0 1 1 2 0zM3 14a1 1 0 1 1 2 0 1 1 0 1 1-2 0zm10 2a1 1 0 1 1 2 0 1 1 0 1 1-2 0zm10 2a1 1 0 1 1 2 0 1 1 0 1 1-2 0zm10 2a1 1 0 1 1 2 0 1 1 0 1 1-2 0zm12 2a1 1 0 1 1-2 0 1 1 0 1 1 2 0zm0-17a2.993 2.993 0 0 0-2.815 2H10v2h32.185A2.994 2.994 0 0 0 45 11c1.654 0 3-1.346 3-3s-1.346-3-3-3zm0 4a1.001 1.001 0 0 1 0-2 1.001 1.001 0 0 1 0 2zM15.816 2A2.996 2.996 0 0 0 13 0c-1.654 0-3 1.346-3 3s1.346 3 3 3a2.996 2.996 0 0 0 2.816-2H48V2H15.816zM13 4c-.551 0-1-.449-1-1s.449-1 1-1 1 .449 1 1-.449 1-1 1z"/></defs><use xlink:href="#a"/></svg>